<?xml version="1.0" standalone="no"?>
<!DOCTYPE svg PUBLIC "-//W3C//DTD SVG 20010904//EN"
 "http://www.w3.org/TR/2001/REC-SVG-20010904/DTD/svg10.dtd">
<svg version="1.0" xmlns="http://www.w3.org/2000/svg"
 width="1004.000000pt" height="48.000000pt" viewBox="0 0 1004.000000 48.000000"
 preserveAspectRatio="xMidYMid meet">

<g transform="translate(0.000000,48.000000) scale(0.100000,-0.100000)"
fill="#000000" stroke="none">
<path d="M3717 450 l-28 -30 5 -147 c2 -82 5 -157 6 -168 5 -86 189 -116 268
-43 l22 21 0 -20 c0 -11 9 -31 19 -44 16 -20 23 -22 38 -13 11 7 17 22 16 40
0 16 4 52 9 81 11 50 12 52 52 59 22 3 42 3 44 -2 30 -78 62 -108 89 -82 15
16 15 20 -2 57 -16 37 -16 41 -1 57 10 9 15 23 12 31 -3 8 -6 17 -6 19 0 2
-11 4 -25 4 -20 0 -29 10 -50 55 -46 95 -94 85 -136 -28 -13 -34 -28 -73 -35
-85 -12 -23 -12 -23 -18 -4 -4 11 -25 37 -46 56 -30 27 -40 44 -40 66 0 37
-23 85 -58 123 -37 39 -96 38 -135 -3z m101 -69 c30 -53 28 -61 -14 -61 -33 0
-36 2 -30 23 3 12 6 34 6 50 0 38 12 34 38 -12z m312 -111 c0 -5 -5 -10 -11
-10 -5 0 -7 5 -4 10 3 6 8 10 11 10 2 0 4 -4 4 -10z m-216 -71 c31 -37 33 -60
6 -84 -24 -22 -100 -31 -129 -16 -17 9 -21 21 -21 56 0 42 2 45 28 45 15 1 38
7 52 15 34 19 35 19 64 -16z"/>
<path d="M5393 438 c15 -140 40 -286 52 -304 12 -18 11 -23 -2 -36 -12 -13
-13 -20 -3 -38 10 -19 18 -22 59 -18 69 7 156 50 181 90 45 75 17 141 -117
271 -77 74 -83 77 -128 77 l-47 0 5 -42z m232 -221 c4 -15 4 -34 1 -42 -6 -18
-101 -65 -129 -65 -17 0 -17 1 -3 16 20 19 20 79 1 159 -26 105 -22 107 55 29
38 -38 72 -82 75 -97z"/>
<path d="M4365 420 c-3 -6 1 -13 10 -16 19 -8 30 0 20 15 -8 14 -22 14 -30 1z"/>
<path d="M4829 398 l-29 -32 0 -148 c0 -139 1 -147 20 -153 34 -11 50 12 50
72 0 53 1 54 27 51 23 -3 29 -9 36 -44 10 -54 37 -80 66 -64 22 11 28 39 12
55 -14 16 -21 71 -10 82 12 12 -5 53 -21 53 -4 0 -12 15 -15 33 -16 70 -58
127 -95 127 -6 0 -24 -15 -41 -32z m70 -125 c1 -7 -6 -13 -14 -13 -15 0 -21
40 -8 54 7 7 21 -18 22 -41z"/>
<path d="M5274 404 c-4 -14 -4 -51 -1 -81 6 -61 -4 -60 -23 2 -23 71 -39 95
-65 95 -30 0 -46 -28 -70 -124 -36 -149 -30 -216 20 -216 14 0 25 3 26 8 0 4
3 36 5 72 2 36 7 79 12 95 l9 30 20 -45 c25 -56 54 -82 89 -83 48 0 57 25 49
142 -8 123 -10 131 -41 131 -17 0 -25 -7 -30 -26z"/>
<path d="M4539 393 c-10 -11 -14 -48 -14 -129 0 -99 3 -116 21 -141 16 -21 31
-29 62 -31 67 -5 116 35 88 73 -11 16 -16 16 -50 4 -32 -12 -38 -11 -46 1 -12
18 -12 167 -1 195 16 39 -32 62 -60 28z"/>
<path d="M5835 331 c-36 -5 -40 -9 -46 -41 -3 -19 -12 -48 -18 -65 -15 -35 -7
-72 21 -102 66 -70 188 -5 188 101 0 33 -7 45 -40 78 -23 21 -46 37 -53 37 -7
-1 -30 -5 -52 -8z m65 -86 c29 -35 -22 -102 -54 -70 -16 17 -12 39 12 68 18
21 26 21 42 2z"/>
<path d="M4323 294 c-6 -17 2 -136 13 -192 8 -40 40 -61 61 -40 12 12 12 30 3
109 -16 138 -17 139 -46 139 -13 0 -27 -7 -31 -16z"/>
</g>
</svg>
