<?xml version="1.0" standalone="no"?>
<!DOCTYPE svg PUBLIC "-//W3C//DTD SVG 20010904//EN"
 "http://www.w3.org/TR/2001/REC-SVG-20010904/DTD/svg10.dtd">
<svg version="1.0" xmlns="http://www.w3.org/2000/svg"
 width="1004.000000pt" height="68.000000pt" viewBox="0 0 1004.000000 68.000000"
 preserveAspectRatio="xMidYMid meet">

<g transform="translate(0.000000,68.000000) scale(0.100000,-0.100000)"
fill="#000000" stroke="none">
<path d="M8660 671 c0 -16 30 -41 49 -41 20 0 41 19 41 37 0 9 -15 13 -45 13
-25 0 -45 -4 -45 -9z"/>
<path d="M9699 659 c34 -36 54 -137 49 -236 -7 -112 -37 -192 -90 -244 -47
-45 -46 -79 2 -79 31 0 77 45 109 108 56 110 68 324 23 425 -21 46 -22 47 -67
47 l-46 0 20 -21z"/>
<path d="M7346 654 c-19 -19 -20 -24 -2 -49 12 -18 25 -125 29 -245 l2 -45 65
-3 c112 -4 167 50 135 134 -23 60 -174 224 -207 224 -4 0 -14 -7 -22 -16z
m160 -226 c13 -25 12 -28 -5 -38 -24 -12 -54 -13 -47 -1 3 5 -1 25 -9 45 -8
19 -15 48 -15 63 l1 28 30 -35 c17 -19 37 -47 45 -62z"/>
<path d="M7230 645 c-17 -20 -3 -54 25 -61 31 -8 45 2 45 31 0 37 -47 58 -70
30z"/>
<path d="M7980 638 c-22 -24 -49 -90 -82 -203 -18 -61 -19 -76 -9 -89 20 -23
50 -19 62 8 18 39 83 50 92 15 5 -18 11 -21 37 -17 24 4 38 -1 55 -18 12 -12
41 -28 64 -35 34 -10 47 -10 80 3 l40 16 3 -37 c3 -31 7 -36 30 -39 22 -3 29
2 34 23 16 64 -11 135 -68 178 -32 24 -112 34 -133 17 -18 -15 -19 -5 -4 41
17 50 48 80 69 69 12 -6 23 -5 36 4 26 20 6 62 -35 71 -57 12 -102 -31 -141
-133 l-17 -44 -12 74 c-18 113 -54 147 -101 96z m40 -153 c0 -14 -6 -25 -14
-25 -9 0 -12 8 -8 25 2 14 8 25 13 25 5 0 9 -11 9 -25z m222 -95 c22 0 32 -16
14 -23 -21 -8 -59 3 -73 21 -21 26 -15 32 15 16 15 -7 35 -14 44 -14z"/>
<path d="M9441 624 c-33 -42 -44 -100 -38 -201 6 -105 21 -146 56 -151 35 -5
46 11 31 47 -22 54 -5 55 47 2 38 -39 58 -52 75 -49 37 5 32 35 -15 91 l-45
52 24 22 c45 40 25 155 -35 200 -29 22 -77 16 -100 -13z m89 -114 c0 -19 -7
-30 -25 -38 -14 -7 -29 -12 -32 -12 -7 0 4 97 13 112 11 17 44 -29 44 -62z"/>
<path d="M6636 617 c-16 -12 -18 -27 -13 -171 6 -173 11 -188 68 -200 39 -8
88 13 120 51 21 25 31 29 57 25 27 -4 32 -1 38 22 6 24 16 29 52 25 4 0 12
-17 17 -37 12 -40 42 -54 64 -28 11 13 4 57 -25 153 -3 10 4 2 15 -18 20 -37
74 -89 92 -89 5 0 17 8 28 19 13 13 20 41 25 107 6 77 5 90 -10 101 -37 27
-64 -20 -55 -94 3 -25 -14 -12 -34 24 -22 42 -52 54 -71 28 -11 -15 -15 -13
-33 23 -21 42 -48 58 -78 48 -25 -8 -63 -84 -63 -126 l0 -35 -41 62 c-39 61
-102 123 -124 123 -6 0 -19 -6 -29 -13z m114 -183 c11 -22 20 -50 20 -61 0
-24 -49 -68 -61 -56 -4 4 -10 53 -14 108 l-6 100 20 -25 c12 -14 30 -43 41
-66z m190 19 c0 -7 -7 -13 -15 -13 -10 0 -15 10 -15 33 1 30 1 31 15 13 8 -11
15 -26 15 -33z"/>
<path d="M8920 610 c-20 -13 -27 -253 -8 -289 21 -40 60 -44 121 -12 55 29 70
56 42 77 -15 11 -24 10 -56 -6 -21 -11 -41 -20 -44 -20 -3 0 -5 54 -4 121 2
95 -1 123 -12 130 -18 11 -21 11 -39 -1z"/>
<path d="M9216 599 c-42 -25 -116 -241 -96 -279 16 -30 48 -25 68 10 13 24 24
30 50 30 24 0 32 -4 32 -18 0 -30 30 -63 53 -60 20 3 22 9 23 71 0 42 -4 70
-11 75 -6 4 -18 36 -25 72 -9 40 -22 73 -36 87 -26 26 -31 27 -58 12z m34
-154 c0 -8 -4 -15 -10 -15 -5 0 -10 7 -10 15 0 8 5 15 10 15 6 0 10 -7 10 -15z"/>
<path d="M4555 569 c-47 -57 -87 -156 -100 -250 -13 -90 31 -176 101 -199 30
-10 39 -10 51 3 21 21 9 50 -27 64 -20 8 -35 24 -45 47 -20 47 -6 136 33 216
22 45 31 54 49 52 38 -5 57 53 27 82 -25 25 -60 19 -89 -15z"/>
<path d="M8700 569 c-16 -29 -9 -201 9 -223 14 -17 46 -22 54 -8 3 4 2 61 -1
127 -7 113 -8 120 -29 123 -14 2 -26 -4 -33 -19z"/>
<path d="M8412 568 c-19 -19 -14 -107 8 -153 45 -94 165 -101 199 -12 5 12 12
49 16 83 5 48 3 63 -9 73 -32 26 -49 9 -61 -59 -6 -36 -14 -71 -18 -77 -25
-40 -77 18 -77 86 0 46 -13 71 -35 71 -6 0 -16 -5 -23 -12z"/>
<path d="M5007 554 c-16 -17 -6 -55 18 -66 32 -14 57 5 53 41 -2 21 -9 27 -33
29 -17 2 -34 0 -38 -4z"/>
<path d="M5953 551 c-77 -13 -84 -28 -82 -160 2 -64 6 -123 11 -132 11 -24 62
-39 132 -38 86 0 131 17 131 49 l0 25 -92 -4 -92 -3 -6 33 c-10 53 -9 54 61
59 74 6 99 24 75 54 -10 12 -32 16 -82 16 -53 0 -69 3 -69 14 0 14 14 16 154
28 33 3 52 27 43 52 -5 13 -20 16 -74 15 -37 -1 -87 -5 -110 -8z"/>
<path d="M7252 534 c-19 -13 -22 -24 -22 -84 0 -88 14 -122 49 -118 l26 3 -3
95 c-4 107 -15 129 -50 104z"/>
<path d="M6216 518 c-19 -26 -21 -109 -5 -141 6 -12 21 -32 32 -44 11 -13 18
-26 14 -29 -3 -4 -2 -15 4 -25 11 -22 49 -25 67 -6 7 6 36 23 65 37 42 20 52
30 52 50 0 27 -15 30 -101 15 -36 -6 -43 -4 -58 16 -20 29 -21 75 -1 83 18 7
20 37 3 54 -19 19 -55 14 -72 -10z"/>
<path d="M3822 517 c-7 -9 -5 -57 9 -162 10 -83 21 -156 24 -163 8 -20 86 -14
143 13 102 48 103 128 2 227 -91 89 -151 118 -178 85z m141 -147 c49 -53 49
-83 0 -103 -21 -8 -41 -13 -45 -11 -3 2 -9 35 -13 72 -4 37 -9 75 -12 85 -4
16 -2 17 14 8 11 -5 36 -28 56 -51z"/>
<path d="M1379 472 c-42 -43 -58 -84 -39 -107 20 -24 38 -18 65 23 14 20 35
49 47 64 18 23 19 30 8 43 -20 24 -39 18 -81 -23z"/>
<path d="M5484 495 c-4 -9 -4 -27 -2 -40 4 -19 1 -25 -13 -25 -9 0 -24 -3 -32
-6 -11 -4 -16 2 -19 23 -4 37 -41 44 -59 12 -28 -54 15 -184 62 -184 21 0 24
4 22 35 -1 35 9 50 37 50 11 0 20 -18 28 -60 14 -67 42 -94 69 -68 12 13 11
31 -8 134 -11 65 -25 125 -31 132 -14 17 -47 15 -54 -3z"/>
<path d="M5174 480 c-12 -4 -24 -15 -27 -24 -6 -15 16 -46 34 -46 5 0 9 -13 9
-29 0 -66 39 -134 74 -129 27 4 31 31 11 74 -9 19 -15 47 -13 62 2 22 9 28 38
32 27 4 36 10 38 29 2 13 -2 28 -10 32 -17 11 -126 10 -154 -1z"/>
<path d="M3653 465 c-5 -15 -3 -40 13 -145 l7 -45 -25 23 c-14 12 -31 35 -39
50 -50 100 -100 80 -144 -58 -29 -90 -27 -90 -71 31 -31 88 -48 109 -85 109
-56 0 -124 -116 -124 -210 0 -52 2 -55 26 -58 14 -2 31 4 39 12 8 11 30 16 65
16 45 0 55 -4 69 -25 20 -30 56 -33 63 -5 4 14 11 19 23 15 25 -8 47 18 55 63
11 65 17 67 67 17 35 -34 53 -45 77 -45 41 0 71 31 71 73 0 38 -24 169 -34
186 -10 16 -46 13 -53 -4z m-320 -197 c-4 -8 -43 -11 -43 -4 0 1 5 18 11 36
l12 33 12 -29 c7 -16 10 -32 8 -36z"/>
<path d="M4872 468 c-7 -7 -12 -35 -12 -62 0 -28 -5 -58 -10 -66 -9 -14 -18 1
-43 73 -9 24 -34 32 -52 17 -10 -8 -15 -31 -15 -64 0 -66 -12 -86 -33 -56 -10
14 -13 34 -10 56 5 29 2 35 -18 43 -37 13 -59 -4 -59 -45 0 -107 105 -185 161
-120 18 21 25 23 50 14 60 -21 99 37 99 148 0 48 -12 74 -35 74 -6 0 -16 -5
-23 -12z"/>
<path d="M3111 451 c-8 -5 -17 -29 -20 -53 -4 -30 -11 -44 -23 -46 -13 -3 -18
3 -18 20 0 23 -16 48 -31 48 -17 0 -39 -33 -39 -59 0 -16 -7 -34 -15 -41 -22
-18 -15 -53 13 -65 13 -5 25 -20 28 -32 9 -34 40 -56 68 -49 16 4 26 1 30 -9
6 -16 41 -20 51 -6 3 5 6 71 7 146 2 110 -1 138 -12 145 -18 12 -22 12 -39 1z
m-21 -197 c0 -14 -4 -23 -10 -19 -5 3 -10 15 -10 26 0 10 5 19 10 19 6 0 10
-12 10 -26z"/>
<path d="M5037 453 c-11 -11 -8 -158 4 -192 9 -27 16 -32 38 -29 l26 3 -4 95
c-2 52 -7 103 -13 113 -9 17 -39 23 -51 10z"/>
<path d="M1896 424 c-51 -18 -78 -43 -74 -67 5 -33 33 -44 57 -23 10 10 46 25
78 35 50 15 58 20 58 42 0 21 -5 24 -40 26 -22 1 -58 -5 -79 -13z"/>
<path d="M4155 405 c-100 -101 -76 -235 43 -235 130 0 233 161 154 240 -26 26
-35 28 -96 28 -63 0 -70 -3 -101 -33z m129 -35 c29 -10 32 -32 12 -68 -28 -51
-119 -83 -132 -47 -8 21 13 69 43 100 28 28 39 30 77 15z"/>
<path d="M2093 396 c-53 -25 -90 -73 -79 -102 4 -11 -1 -13 -22 -8 -15 4 -34
13 -43 20 -23 20 -36 17 -55 -10 -8 -14 -25 -26 -37 -28 -31 -4 -37 -57 -8
-65 16 -4 21 -13 21 -40 0 -48 37 -83 88 -83 71 0 89 62 19 68 -34 3 -37 6
-37 33 0 25 5 30 31 36 17 3 36 14 42 24 10 16 16 13 66 -33 31 -28 57 -54 59
-59 2 -4 -16 -9 -40 -11 -38 -3 -43 -6 -43 -28 0 -51 103 -61 150 -14 33 33
19 72 -50 138 -36 34 -65 67 -65 72 0 14 65 42 104 46 40 4 58 34 32 54 -29
21 -74 17 -133 -10z"/>
<path d="M805 400 c-63 -14 -105 -53 -105 -96 0 -12 21 -49 46 -83 25 -33 43
-65 39 -71 -9 -15 -32 -12 -39 5 -7 20 -24 19 -72 -4 -52 -25 -110 -36 -119
-22 -14 23 7 49 53 66 60 23 72 32 72 60 0 31 -22 37 -64 20 -46 -19 -46 -19
-46 9 0 20 8 27 43 38 48 15 63 49 29 67 -28 15 -136 -23 -162 -56 -25 -32
-25 -38 0 -61 17 -16 19 -24 10 -46 -13 -36 -13 -99 1 -129 20 -43 86 -60 146
-36 15 6 61 12 100 13 86 3 123 27 123 81 0 30 -43 103 -69 120 -16 10 -13 42
5 49 9 3 26 6 39 6 45 0 61 55 20 70 -11 4 -33 4 -50 0z"/>
<path d="M2771 384 c-44 -56 -51 -147 -16 -201 25 -37 79 -57 119 -43 41 13
79 52 74 77 -5 26 -43 28 -74 4 -49 -39 -88 12 -64 83 6 20 18 40 27 44 8 5
13 19 11 33 -5 36 -49 38 -77 3z"/>
<path d="M2607 388 c-12 -9 -18 -36 -23 -95 -4 -45 -11 -87 -16 -95 -14 -21
-39 21 -37 62 3 54 1 60 -24 60 -34 0 -47 -19 -47 -71 0 -54 30 -107 74 -127
37 -19 80 -1 99 41 21 45 33 203 17 222 -15 18 -21 19 -43 3z"/>
<path d="M1458 364 c-35 -18 -61 -68 -52 -97 4 -12 24 -46 45 -76 45 -62 50
-86 17 -78 -26 7 -58 -8 -58 -28 0 -44 78 -60 124 -24 40 32 36 82 -14 157
-22 33 -40 64 -40 70 0 12 24 22 55 22 12 0 26 7 29 16 8 21 8 20 -10 38 -19
20 -60 20 -96 0z"/>
<path d="M1015 361 c-5 -5 -33 -12 -61 -14 -59 -5 -74 -12 -74 -36 0 -28 21
-41 67 -41 l42 0 3 -101 c2 -82 6 -104 20 -112 12 -8 21 -7 32 2 13 11 16 35
16 116 0 99 1 103 25 119 28 18 32 38 12 55 -20 16 -70 24 -82 12z"/>
<path d="M1256 336 c-54 -59 -120 -232 -100 -264 17 -27 57 -22 64 8 4 17 15
27 35 31 49 11 65 10 65 -4 0 -21 36 -49 57 -45 23 4 22 29 -7 163 -30 135
-62 167 -114 111z m40 -132 c-3 -8 -15 -14 -26 -14 -20 0 -20 1 -4 32 14 28
17 29 26 14 5 -9 7 -24 4 -32z"/>
<path d="M2306 339 c-59 -47 -76 -140 -32 -184 39 -39 126 -57 160 -32 30 22
16 52 -24 55 -56 4 -90 22 -90 46 0 32 28 66 55 66 29 0 47 27 34 52 -13 25
-70 23 -103 -3z"/>
</g>
</svg>
