<?xml version="1.0" standalone="no"?>
<!DOCTYPE svg PUBLIC "-//W3C//DTD SVG 20010904//EN"
 "http://www.w3.org/TR/2001/REC-SVG-20010904/DTD/svg10.dtd">
<svg version="1.0" xmlns="http://www.w3.org/2000/svg"
 width="1004.000000pt" height="44.000000pt" viewBox="0 0 1004.000000 44.000000"
 preserveAspectRatio="xMidYMid meet">

<g transform="translate(0.000000,44.000000) scale(0.100000,-0.100000)"
fill="#000000" stroke="none">
<path d="M4788 428 c-2 -6 2 -62 9 -124 14 -110 13 -114 -7 -134 -11 -11 -20
-24 -20 -29 0 -56 180 -25 235 41 45 53 29 104 -63 200 -52 55 -58 58 -103 58
-27 0 -49 -5 -51 -12z m158 -160 c8 -15 14 -30 14 -33 0 -6 -62 -45 -72 -45
-10 0 -11 124 -1 133 9 9 42 -22 59 -55z"/>
<path d="M5106 418 c-20 -33 -36 -118 -43 -230 -5 -88 -4 -98 12 -104 26 -10
49 9 55 46 3 22 12 35 27 41 19 7 23 2 40 -49 13 -43 23 -58 39 -60 37 -5 47
20 29 74 -16 47 -16 48 5 64 28 21 23 52 -10 60 -21 5 -27 16 -41 69 -26 97
-34 111 -69 111 -20 0 -34 -7 -44 -22z m54 -153 c0 -14 -4 -25 -10 -25 -5 0
-10 11 -10 25 0 14 5 25 10 25 6 0 10 -11 10 -25z"/>
<path d="M2860 408 c-19 -13 -45 -45 -59 -72 -64 -124 4 -269 133 -283 79 -9
95 57 17 68 -90 12 -131 113 -80 195 11 19 24 34 27 34 4 0 15 -14 24 -30 19
-33 39 -38 58 -15 16 19 6 57 -23 89 -33 36 -58 40 -97 14z"/>
<path d="M5386 380 c-31 -37 -40 -83 -33 -159 7 -81 28 -118 75 -130 88 -25
181 1 216 59 31 53 -1 118 -69 140 -22 7 -35 20 -44 45 -27 75 -100 98 -145
45z m62 -94 c-20 -16 -23 -16 -26 -3 -2 9 2 26 9 38 11 22 12 22 26 3 12 -17
11 -21 -9 -38z m122 -74 l23 -18 -28 -22 c-16 -13 -42 -22 -61 -22 -38 0 -54
16 -25 25 11 3 26 17 35 30 20 30 27 31 56 7z"/>
<path d="M6928 378 c-57 -61 -96 -168 -84 -232 4 -18 19 -46 33 -61 23 -22 34
-26 68 -23 22 3 48 8 57 12 13 6 19 0 28 -33 10 -38 13 -41 45 -41 40 0 41 5
19 79 -20 69 -78 128 -134 137 -22 4 -40 9 -40 11 0 21 59 107 77 114 29 11
39 35 23 54 -21 25 -59 18 -92 -17z m29 -244 c-3 -3 -12 -4 -19 -1 -8 3 -5 6
6 6 11 1 17 -2 13 -5z"/>
<path d="M5782 389 c-43 -17 -55 -70 -49 -209 5 -102 9 -127 23 -137 59 -43
204 46 204 125 0 26 -26 82 -38 82 -4 0 -13 20 -20 44 -20 75 -70 115 -120 95z
m45 -103 c-4 -9 -11 -16 -17 -16 -11 0 -14 33 -3 44 11 10 26 -11 20 -28z m63
-115 c0 -13 -51 -61 -66 -61 -25 0 -14 28 19 48 36 23 47 26 47 13z"/>
<path d="M6062 384 c-21 -14 -22 -23 -22 -145 0 -125 1 -131 25 -154 13 -14
33 -25 43 -25 29 0 105 29 114 43 25 39 -14 64 -66 42 -19 -8 -38 -15 -42 -15
-3 0 -4 57 -3 126 3 107 2 127 -12 134 -10 6 -23 4 -37 -6z"/>
<path d="M3100 370 c-31 -31 -34 -65 -21 -195 12 -111 28 -165 51 -165 21 0
42 34 36 61 l-5 27 44 -25 c56 -31 108 -29 113 4 3 19 -6 27 -51 47 -30 13
-57 28 -60 33 -4 6 10 21 31 34 30 19 38 31 40 61 2 29 -3 43 -29 73 -57 64
-113 81 -149 45z m90 -85 c25 -27 25 -27 -7 -44 -34 -18 -43 -13 -43 22 0 54
14 60 50 22z"/>
<path d="M6267 373 c-12 -11 -7 -40 8 -53 13 -11 13 -15 3 -21 -15 -10 -12
-202 3 -231 11 -20 44 -24 55 -7 12 20 4 203 -10 224 -11 16 -10 22 7 35 30
25 15 60 -27 60 -18 0 -36 -3 -39 -7z"/>
<path d="M4032 358 c-25 -25 -1 -222 34 -275 18 -28 48 -30 67 -3 14 20 16 20
73 5 118 -31 217 -13 187 33 -7 12 -31 19 -84 23 -89 7 -129 17 -129 32 0 7
16 35 36 64 42 61 44 106 6 111 -35 5 -66 -20 -92 -77 -13 -27 -27 -48 -30
-45 -3 3 -7 36 -10 72 -4 58 -8 67 -25 70 -11 1 -26 -3 -33 -10z"/>
<path d="M6682 361 c-18 -11 -31 -73 -32 -143 0 -32 -4 -58 -9 -58 -9 0 -42
64 -55 106 -4 12 -15 29 -26 39 -51 46 -110 -43 -118 -176 -4 -69 -2 -79 17
-98 25 -25 49 -24 65 1 8 13 8 23 -2 38 -19 30 -13 130 8 130 4 0 14 -14 21
-32 22 -53 67 -98 100 -98 44 0 60 35 68 143 4 51 11 98 15 105 9 14 -10 52
-27 52 -7 0 -18 -4 -25 -9z"/>
<path d="M3810 327 c-49 -32 -74 -81 -73 -140 1 -59 23 -94 78 -121 34 -17 44
-18 84 -7 56 15 73 28 69 55 -3 22 -37 27 -89 12 -66 -19 -100 83 -43 132 19
16 35 22 52 19 37 -7 52 2 52 29 0 47 -75 59 -130 21z"/>
<path d="M3441 315 c-20 -27 -49 -134 -58 -220 -4 -38 -2 -54 10 -63 20 -17
57 1 57 28 0 24 4 26 65 34 48 7 51 6 67 -24 19 -33 54 -41 65 -14 11 29 -64
221 -105 267 -23 26 -76 22 -101 -8z m82 -100 c9 -20 17 -37 17 -40 0 -6 -61
-17 -66 -12 -8 7 15 87 25 87 4 0 15 -16 24 -35z"/>
</g>
</svg>
