<?xml version="1.0" standalone="no"?>
<!DOCTYPE svg PUBLIC "-//W3C//DTD SVG 20010904//EN"
 "http://www.w3.org/TR/2001/REC-SVG-20010904/DTD/svg10.dtd">
<svg version="1.0" xmlns="http://www.w3.org/2000/svg"
 width="1004.000000pt" height="44.000000pt" viewBox="0 0 1004.000000 44.000000"
 preserveAspectRatio="xMidYMid meet">

<g transform="translate(0.000000,44.000000) scale(0.100000,-0.100000)"
fill="#000000" stroke="none">
<path d="M4336 427 c-11 -8 -17 -23 -14 -38 3 -26 21 -29 86 -14 l32 8 0 -56
c0 -114 32 -207 71 -207 29 0 33 24 15 89 -19 69 -21 164 -3 179 7 6 39 12 72
14 48 2 60 7 63 21 3 16 -9 17 -150 17 -111 0 -159 -4 -172 -13z"/>
<path d="M4837 422 c-11 -12 -17 -36 -17 -70 0 -47 -3 -53 -29 -67 -17 -8 -32
-12 -34 -7 -2 4 -1 33 2 64 8 64 0 88 -29 88 -30 0 -39 -29 -46 -158 -6 -105
-5 -125 10 -147 12 -18 24 -25 39 -23 19 3 22 8 20 49 -2 45 -2 46 34 57 20 6
39 9 43 7 4 -3 10 -22 14 -44 3 -22 17 -53 30 -68 21 -23 28 -26 43 -17 21 14
21 28 -3 107 -15 48 -15 62 -5 79 10 16 9 24 -4 45 -12 18 -15 37 -11 61 9 56
-24 81 -57 44z"/>
<path d="M7331 414 c-40 -34 -86 -115 -107 -191 -16 -59 -16 -64 0 -108 29
-74 100 -105 185 -79 25 7 48 14 50 14 2 0 0 -11 -3 -25 -6 -24 -4 -25 33 -25
39 0 40 0 46 44 15 97 -37 163 -140 180 -56 10 -95 -6 -95 -39 0 -22 7 -27 60
-42 48 -13 58 -19 49 -30 -12 -14 -76 -18 -96 -5 -6 4 -16 20 -22 34 -19 51
39 185 99 228 34 24 36 32 14 54 -22 22 -38 20 -73 -10z"/>
<path d="M5790 423 c-47 -6 -53 -13 -67 -91 -15 -89 -16 -155 -1 -187 23 -50
93 -68 168 -42 27 9 35 17 35 37 0 17 -7 26 -24 30 l-24 5 27 12 c18 9 26 20
26 38 0 34 -22 41 -70 21 -22 -9 -50 -16 -61 -16 -18 0 -20 4 -13 48 3 26 7
52 8 57 2 18 20 25 68 25 36 0 50 4 58 19 7 15 6 23 -6 35 -15 16 -47 18 -124
9z"/>
<path d="M6410 416 c-35 -19 -73 -90 -73 -137 0 -26 10 -54 31 -86 34 -52 34
-60 4 -44 -35 18 -69 -8 -56 -43 14 -37 138 -51 167 -18 25 28 21 43 -28 106
-50 65 -59 110 -26 140 16 15 19 15 24 1 8 -19 41 -20 57 0 23 28 -15 95 -54
95 -12 -1 -32 -7 -46 -14z"/>
<path d="M3817 405 c-9 -8 -20 -36 -25 -62 -6 -27 -15 -74 -22 -105 -6 -32
-16 -58 -21 -58 -15 0 -46 59 -53 100 -11 72 -66 76 -89 7 l-13 -41 -20 59
c-18 56 -21 60 -49 60 -28 0 -30 -2 -33 -45 -2 -29 1 -48 11 -55 7 -5 19 -32
26 -59 20 -81 38 -108 69 -104 19 2 32 13 43 34 l15 31 37 -33 c43 -40 78 -43
107 -12 23 25 33 58 56 181 13 69 14 90 4 102 -16 19 -25 19 -43 0z"/>
<path d="M3033 395 c-57 -8 -107 -16 -113 -20 -16 -10 -12 -52 6 -59 8 -3 39
-3 68 0 l53 6 12 -45 c23 -95 12 -141 -42 -160 -14 -5 -16 -2 -11 17 12 48
-53 63 -70 15 -12 -36 0 -76 29 -95 38 -25 91 -11 138 37 l40 39 -6 78 c-3 42
-9 89 -13 104 -5 24 -3 27 22 30 22 2 30 9 32 27 4 23 -12 42 -33 40 -5 -1
-56 -7 -112 -14z"/>
<path d="M5073 400 c-75 -17 -97 -63 -90 -183 2 -49 9 -93 15 -99 32 -32 185
-29 203 4 17 32 -7 51 -59 45 -47 -5 -82 0 -82 13 0 4 31 16 70 25 79 19 97
33 80 64 -13 25 -16 25 -92 5 -33 -8 -63 -13 -65 -10 -12 12 9 57 30 65 12 5
48 5 81 0 32 -4 64 -5 72 -2 23 9 17 52 -8 62 -37 13 -121 20 -155 11z"/>
<path d="M7099 382 c-20 -17 -24 -31 -29 -108 l-6 -89 -28 58 c-49 102 -92 99
-126 -11 -12 -37 -24 -90 -27 -118 -5 -46 -3 -53 15 -63 29 -15 54 10 73 72 7
26 16 47 19 47 3 0 14 -13 25 -29 37 -56 97 -63 116 -14 5 13 9 63 9 110 0 67
4 91 17 105 13 15 15 23 7 36 -16 24 -37 26 -65 4z"/>
<path d="M3256 367 c-30 -30 -39 -85 -35 -202 3 -71 7 -89 23 -100 29 -22 56
-2 56 40 0 33 2 35 34 35 42 0 98 37 106 70 10 42 -1 69 -49 121 -58 62 -98
73 -135 36z m89 -88 c14 -18 25 -39 23 -48 -4 -19 -44 -27 -61 -12 -14 11 -11
91 3 91 5 0 20 -14 35 -31z"/>
<path d="M6707 371 c-56 -36 -127 -169 -127 -237 0 -57 15 -67 87 -58 125 15
174 58 175 153 0 65 -17 116 -49 141 -32 25 -50 25 -86 1z m57 -77 c3 -9 6
-35 6 -59 0 -35 -5 -48 -26 -64 -31 -25 -35 -25 -59 -8 -23 18 -16 49 25 105
32 45 44 51 54 26z"/>
<path d="M5497 363 c-8 -10 -23 -43 -33 -73 l-18 -55 -11 37 c-21 77 -69 87
-100 22 -28 -58 -55 -145 -55 -175 0 -26 22 -59 39 -59 14 0 31 24 31 45 0 11
5 38 11 59 l11 40 26 -47 c45 -83 93 -69 114 34 7 33 15 59 19 59 4 0 12 -19
18 -42 25 -97 79 -152 110 -114 11 13 9 21 -7 48 -11 18 -32 73 -46 122 -14
48 -31 95 -37 102 -16 19 -53 17 -72 -3z"/>
<path d="M2253 332 c-7 -4 -19 -23 -27 -42 -18 -44 -58 -268 -51 -281 10 -16
65 -11 65 6 0 27 38 55 75 55 30 0 35 -4 43 -32 7 -29 13 -33 45 -36 20 -2 37
0 37 4 0 17 -63 222 -82 266 -26 61 -67 84 -105 60z m64 -146 c12 -40 9 -46
-25 -46 -18 0 -23 4 -18 16 3 9 9 27 12 40 9 33 19 30 31 -10z"/>
</g>
</svg>
