<?xml version="1.0" standalone="no"?>
<!DOCTYPE svg PUBLIC "-//W3C//DTD SVG 20010904//EN"
 "http://www.w3.org/TR/2001/REC-SVG-20010904/DTD/svg10.dtd">
<svg version="1.0" xmlns="http://www.w3.org/2000/svg"
 width="1004.000000pt" height="52.000000pt" viewBox="0 0 1004.000000 52.000000"
 preserveAspectRatio="xMidYMid meet">

<g transform="translate(0.000000,52.000000) scale(0.100000,-0.100000)"
fill="#000000" stroke="none">
<path d="M4037 473 c-14 -13 -6 -78 14 -120 25 -52 69 -90 112 -98 l32 -6 -6
-72 c-6 -79 2 -107 31 -107 27 0 40 30 40 92 0 29 7 98 15 153 19 131 19 154
-1 162 -28 11 -47 -11 -68 -78 -16 -50 -25 -64 -41 -64 -22 0 -65 66 -65 101
0 34 -42 59 -63 37z"/>
<path d="M5088 463 c-27 -7 -31 -42 -25 -196 7 -175 4 -172 130 -172 141 0
171 28 126 118 -52 102 -179 260 -207 256 -4 -1 -15 -3 -24 -6z m116 -197 c31
-46 56 -88 56 -95 0 -7 -21 -11 -55 -11 -62 0 -61 -3 -68 112 -4 57 -2 78 8
78 2 0 28 -38 59 -84z"/>
<path d="M4454 419 c-16 -5 -41 -20 -55 -35 -21 -22 -24 -35 -24 -97 0 -76 22
-140 52 -151 25 -10 186 25 206 43 11 11 15 24 11 35 -7 19 -26 19 -151 0 -29
-5 -43 -3 -43 5 0 6 12 11 28 11 30 1 135 24 151 35 16 10 13 52 -4 59 -9 3
-44 -1 -78 -9 -105 -25 -130 -18 -87 25 17 17 33 20 119 20 106 0 129 10 116
50 -6 18 -14 20 -108 19 -56 0 -116 -5 -133 -10z"/>
<path d="M4932 408 c-7 -7 -12 -39 -12 -76 0 -37 -4 -61 -9 -57 -5 3 -21 30
-34 59 -50 108 -103 95 -141 -34 -29 -98 -18 -190 24 -190 27 0 30 10 33 95 4
98 15 108 50 42 33 -62 69 -91 102 -83 32 8 45 52 45 150 0 79 -9 106 -35 106
-6 0 -16 -5 -23 -12z"/>
<path d="M5370 370 c-24 -24 -25 -34 -6 -49 13 -11 13 -17 0 -46 -21 -50 -17
-90 10 -121 57 -67 186 3 186 101 0 93 -132 173 -190 115z m120 -119 c0 -21
-30 -51 -52 -51 -24 0 -23 27 3 70 20 32 22 33 35 15 8 -10 14 -25 14 -34z"/>
</g>
</svg>
