<?xml version="1.0" standalone="no"?>
<!DOCTYPE svg PUBLIC "-//W3C//DTD SVG 20010904//EN"
 "http://www.w3.org/TR/2001/REC-SVG-20010904/DTD/svg10.dtd">
<svg version="1.0" xmlns="http://www.w3.org/2000/svg"
 width="1004.000000pt" height="48.000000pt" viewBox="0 0 1004.000000 48.000000"
 preserveAspectRatio="xMidYMid meet">

<g transform="translate(0.000000,48.000000) scale(0.100000,-0.100000)"
fill="#000000" stroke="none">
<path d="M3895 446 c-24 -24 -24 -26 -20 -196 4 -169 10 -200 40 -200 24 0 45
36 45 79 0 25 5 43 13 45 106 30 157 70 157 124 -1 36 -32 102 -61 129 -53 49
-135 58 -174 19z m117 -66 c14 -10 31 -33 38 -50 12 -28 11 -34 -7 -51 -10
-11 -35 -22 -55 -25 l-36 -6 9 42 c10 44 5 80 -12 80 -5 0 -9 7 -9 15 0 22 42
19 72 -5z"/>
<path d="M4887 452 c-20 -22 -21 -70 -3 -172 7 -41 11 -89 9 -105 -7 -45 22
-66 90 -66 60 0 110 20 127 50 28 54 -6 163 -76 241 -61 68 -116 87 -147 52z
m144 -175 c11 -21 19 -51 17 -65 -3 -23 -8 -27 -40 -30 l-38 -3 0 54 c0 30 3
69 7 87 6 31 7 32 20 14 8 -10 23 -36 34 -57z"/>
<path d="M5565 451 c-17 -10 -39 -30 -49 -45 -64 -98 -31 -326 42 -287 14 7
22 21 22 37 0 21 4 25 18 19 75 -30 135 -46 182 -48 53 -2 55 -1 58 25 3 28
-1 31 -68 43 -42 8 -130 35 -130 40 0 2 11 21 25 41 29 43 33 109 10 153 -23
45 -60 53 -110 22z m55 -89 c0 -29 -24 -72 -41 -72 -15 0 -10 64 7 88 19 27
34 20 34 -16z"/>
<path d="M5286 448 c-55 -7 -96 -29 -96 -50 0 -5 -10 -22 -22 -39 -18 -24 -23
-46 -26 -122 -3 -83 -2 -94 17 -114 12 -13 34 -26 48 -29 49 -13 216 32 227
61 2 7 -1 21 -8 31 -13 17 -17 16 -99 -5 -47 -13 -93 -21 -101 -18 -31 12 -16
34 32 47 76 21 104 38 100 63 -2 18 -9 22 -38 21 -19 -1 -52 -5 -72 -9 l-37
-7 11 37 c14 42 49 65 103 65 42 0 83 33 65 55 -16 19 -38 22 -104 13z"/>
<path d="M4711 412 c-7 -16 -16 -66 -20 -111 -9 -83 -20 -109 -40 -96 -17 10
-42 63 -55 114 -9 39 -15 46 -38 49 -31 4 -33 -3 -43 -98 -12 -124 -45 -120
-55 6 -4 57 -9 80 -22 87 -31 20 -48 -8 -48 -82 0 -75 25 -143 60 -161 36 -19
82 -8 105 25 l20 31 34 -23 c55 -37 102 -30 127 19 14 26 34 151 38 233 1 25
-3 30 -25 33 -21 2 -29 -3 -38 -26z"/>
<path d="M4212 332 c-46 -46 -92 -134 -92 -177 0 -93 131 -84 197 14 28 42 30
103 5 139 -10 15 -22 35 -25 45 -10 28 -44 20 -85 -21z m52 -108 c-9 -28 -59
-72 -70 -62 -6 7 21 65 44 91 22 25 39 6 26 -29z"/>
</g>
</svg>
