<?xml version="1.0" standalone="no"?>
<!DOCTYPE svg PUBLIC "-//W3C//DTD SVG 20010904//EN"
 "http://www.w3.org/TR/2001/REC-SVG-20010904/DTD/svg10.dtd">
<svg version="1.0" xmlns="http://www.w3.org/2000/svg"
 width="1004.000000pt" height="52.000000pt" viewBox="0 0 1004.000000 52.000000"
 preserveAspectRatio="xMidYMid meet">

<g transform="translate(0.000000,52.000000) scale(0.100000,-0.100000)"
fill="#000000" stroke="none">
<path d="M4196 478 c-8 -13 -20 -45 -27 -73 -16 -66 -35 -102 -61 -116 -29
-16 -48 10 -48 66 0 49 -19 79 -46 73 -16 -3 -19 -13 -22 -65 -4 -74 14 -115
59 -139 18 -9 43 -14 56 -11 l25 5 -7 -72 c-7 -79 5 -104 43 -92 16 5 21 24
32 109 7 56 23 145 36 197 28 113 28 105 8 124 -21 21 -31 20 -48 -6z"/>
<path d="M5230 479 c-83 -16 -125 -70 -80 -102 21 -15 21 -16 4 -48 -9 -19
-21 -37 -26 -40 -14 -9 3 -118 24 -144 36 -47 116 -42 201 12 28 18 37 30 35
46 -4 32 -34 33 -94 2 -62 -31 -89 -30 -89 5 0 21 7 26 55 38 63 16 80 27 80
54 0 25 -25 33 -67 20 -30 -9 -34 -8 -29 5 3 8 -2 28 -11 44 -9 15 -15 31 -12
33 3 3 33 9 68 13 70 9 95 29 72 57 -15 18 -59 19 -131 5z"/>
<path d="M5823 460 c-88 -18 -134 -63 -99 -98 14 -15 19 -14 53 5 45 24 112
36 132 23 12 -7 0 -25 -57 -84 -77 -81 -87 -109 -52 -141 37 -33 227 -13 298
31 52 33 8 77 -53 54 -37 -14 -168 -40 -174 -34 -2 2 23 32 56 66 33 35 63 76
67 92 10 39 -14 72 -61 85 -43 12 -51 12 -110 1z"/>
<path d="M5496 429 c-52 -61 -90 -205 -68 -254 17 -36 57 -34 77 5 14 26 21
30 59 30 25 0 50 2 58 5 8 3 18 -6 25 -25 8 -22 18 -30 36 -30 36 0 39 21 16
97 -56 183 -137 251 -203 172z m94 -90 c12 -23 20 -42 18 -44 -2 -1 -18 -5
-36 -8 -33 -7 -34 -7 -27 26 9 46 16 67 20 67 3 0 14 -18 25 -41z"/>
<path d="M5006 408 c-7 -13 -17 -61 -20 -108 -4 -47 -11 -102 -17 -124 l-10
-38 -17 23 c-9 13 -31 67 -48 119 -28 83 -35 95 -57 98 -29 4 -34 -6 -47 -102
-16 -108 -20 -118 -36 -76 -7 19 -13 52 -13 73 -1 52 -16 77 -46 77 -34 0 -39
-30 -22 -116 20 -94 40 -139 71 -159 24 -16 28 -16 51 -1 13 9 30 34 36 56 13
44 24 51 34 21 3 -11 19 -34 35 -50 46 -50 95 -40 129 26 13 26 44 280 36 293
-11 18 -44 10 -59 -12z"/>
<path d="M3839 384 c-8 -9 -14 -38 -15 -63 0 -25 -2 -68 -3 -96 l-3 -50 -23
50 c-17 35 -21 53 -14 62 16 19 6 57 -16 62 -11 2 -26 12 -33 22 -16 23 -45
25 -62 4 -15 -18 -55 -287 -46 -310 4 -11 15 -15 33 -13 23 2 31 12 49 56 11
28 23 55 26 58 3 3 14 -8 24 -25 37 -62 95 -65 120 -4 21 49 31 228 14 248
-16 19 -34 19 -51 -1z"/>
</g>
</svg>
